<svg xmlns="http://www.w3.org/2000/svg" viewBox="0 0 704 704" fill="none" shape-rendering="auto" aria-hidden="true"><!-- Generated by DiceBear (https://dicebear.com) --><metadata xmlns:rdf="http://www.w3.org/1999/02/22-rdf-syntax-ns#" xmlns:xsi="http://www.w3.org/2001/XMLSchema-instance" xmlns:dc="http://purl.org/dc/elements/1.1/" xmlns:dcterms="http://purl.org/dc/terms/"><rdf:RDF><rdf:Description><dc:title>Open Peeps</dc:title><dc:creator>Pablo Stanley</dc:creator><dc:source xsi:type="dcterms:URI">https://www.openpeeps.com/</dc:source><dcterms:license xsi:type="dcterms:URI">https://creativecommons.org/publicdomain/zero/1.0/</dcterms:license><dc:rights>Remix of “Open Peeps” (https://www.openpeeps.com/) by “Pablo Stanley”, licensed under “CC0 1.0” (https://creativecommons.org/publicdomain/zero/1.0/)</dc:rights></rdf:Description></rdf:RDF></metadata><defs><g id="head-mohawk-a5bd89fe"><path fill-rule="evenodd" clip-rule="evenodd" d="M543.1 362.5c.6-25-1.8-50.8-14-73.2a242 242 0 0 0-42.4-56.3c-6.7-7-15.7-14.2-14.9-25 1-11.2 7.7-35.6 8.8-47 2-22.4-14-28.5-32.7-39.2-22.6-12.8-49.6-11.3-74-5.5-45.6 10.8-99.9 29-117 77.3-4.2 11.9-3.2 24.4-4 36.8-.8 11.6-5.4 22.6-9.9 33.2-23.5 52.3-23.2 110-19 166.1-12.5 3-24.6 12.7-27.4 25.7-4.6 22.8 19.2 33.3 33.3 45.6 17.2 15 29.7 34.4 45.4 50.9C376.7 663.7 600.5 612.3 554 438.1c-6.3-24.8-11.8-49.8-10.9-75.6" fill="#ae5d29"/><path fill-rule="evenodd" clip-rule="evenodd" d="M373.9 116.3c24.2-5.7 50.9-7.2 73.3 5.2l2.4 1.3c18 10 33 16.5 31 38.2-1 11.4-7.9 35.8-8.8 47v1.1l-10.4 46.7h-56.6q-41-43.8-73-43.8-31.9 0-67.4 19.6l-1 .5-10.7.6.2-2.3c.8-12.4-.2-25 4-36.8 17.1-48.4 71.4-66.5 117-77.3" fill="#f59797"/><path fill-rule="evenodd" clip-rule="evenodd" d="M342.5 118.7c25.2-9.8 52.4-14 79.4-10.5a141 141 0 0 1 41.7 12 117 117 0 0 1 18.3 10.6l.5.3c4.6 3.3 9.2 7.4 8.7 12.8q.6 1.8.1 3.7-6.7 30.2-13.8 60.3l-2.9 12.7c31.7 23.9 61.4 56.4 72.7 95.1 11 38 6.2 77.8 10 116.6q1.4 13.8 5 27.2c2.6 9.6 7 18.6 9.3 28.3 4.4 19.4-2 38.6-12.3 55a177 177 0 0 1-81.3 70.2c-17 7-36 10.8-54.4 10.5-18.2-.3-38.8-4-54-14.5-10.3-7-1.5-21 9.5-16.4l3 1.3a101 101 0 0 0 51.5 9.6c18.1-1.1 35.3-7.1 51-16.2a172 172 0 0 0 38-30.6l1.2-1.3A134 134 0 0 0 551 517a43 43 0 0 0 3.4-23.5c-1.5-9.2-5.6-17.8-8-26.8-4.5-17-6-34.8-6.6-52.4v-1.4c-1-36 1.7-72.7-11-107.2-11.6-31.3-35.5-55.2-55-81.5l-3 13q-1.5 8-3.4 15.7v.4c.3 1 .2 2.3-.9 3.1l-.3.3a8 8 0 0 1-5.7 5c-3 .7-5.3-.5-6.6-2.7h-15.3c-9.8.1-20.5 1.3-30-.7-1.5-.3-1.4-2.4 0-2.8 9-2.9 19.6-2.8 29-3.7l14.8-1.3 2-.3h1l5.1-23q3.2-13.6 6-27.3 5.2-24.7 10.8-49.3A126 126 0 0 0 442 147h-1.4c-4.6.3-9.6.8-13.5 3.5-4.8 3.3-5.1 10.2-6.2 15.5a600 600 0 0 0-6.9 44l-2.3 21.5-1 9.8c-.5 3-1.6 6-2.3 9 1.1 4.7-5.3 9-8.9 5-4.4-5.1-8.3-10.4-13.2-15q-7.5-7-16.2-12.3a148 148 0 0 0-37.5-15.2q-.6-.2-.8-.7a186 186 0 0 0-38.1 15.4 119 119 0 0 0-58 72c-5.2 19-6.4 39.2-6.4 59 0 9 .1 18.3 1.6 27.3 1.6 10.1 5.3 19.1 8.2 28.8q1.1 3.8-.2 6.7h.7c6 1 17.8 3.7 19 10.3q.2 2.9-2.7 3.4c-3.4.3-5.5-2.2-8.2-3.8l-1.4-.9h-.5c-16-9-35.3 4.8-38.9 20.9-3.3 15 2.3 32.3 16.8 38.9 7.3 3.3 15 5.3 21.8 9.9a72 72 0 0 1 15 13.6c9 10.7 15.7 23 23.6 34.4q5.1 7.6 12 13.9c5 4.4 12 6.2 14.1 13.1.8 2.7-.5 6-3 7.4-9 5-19-3.8-25.3-9.7a115 115 0 0 1-16.5-21c-8-12.4-15-26.6-26.7-36-7.1-5.7-16-7.8-24-11.8a41 41 0 0 1-19.5-21.5c-7.2-17.3-5.3-39.4 8.3-53.2 4.4-4.4 10-7.3 15.8-8.5a98 98 0 0 1-9.8-35.6 198 198 0 0 1-1-35.6V347a211 211 0 0 1 11.4-63 122 122 0 0 1 33.5-48.4q-.7-.4-1-1c-3.7-4-3-9.3-2.5-14.2q.8-8.3 2.8-16.4a115 115 0 0 1 73.7-80.6q7.9-2.8 16.2-4.7M220 450c5.9-3.7 14.9-2.3 21 .2 7.2 2.8 14.9 8.2 17.7 15.6 2.6 7-7.2 9.4-10.8 4.6-2.3-3-4-5.8-6.1-8.4l-.8.9-.1.2c-1 1.3-2.6 2.7-4.4 2.5h-.5c-1.8-.3-3.7-1.2-4.2-3.1v-.3l-.1-.3c-.4-2.2.2-4.6 2.3-5.7l.4-.2c-4.6-2.4-9.3-3.2-14.3-4.9-.4-.1-.6-.8 0-1m163.5-322.3c-30.7-.7-64.3 8.7-87 30a118 118 0 0 0-24.4 34.7c-3.1 6.2-5 13-6.6 19.7q-1.2 5.4-1.7 11l-.1 2.3q-.1.8-.4.7l.6.9c23-16.5 51.3-26.2 79.4-19.9 1 .2 1 1.6 0 1.8l-4.3 1c12.3.3 25 4.2 35.5 9.9a95 95 0 0 1 29.5 23.6q-.4-2-.4-4.3-.1-5.9.1-11.7.6-12.7 1.6-25.3l.3-3.7a378 378 0 0 1 5.8-44.2 22 22 0 0 1 12.6-16.6c-11.6-7.4-27.3-9.5-40.5-9.9m56.8-4.8q-20.9-6.2-42.6-5.8a62 62 0 0 1 15 6 43 43 0 0 1 14.4 13.2q5.5-1.8 12-2.2 14.8-1 29.5 1.4a120 120 0 0 0-28.3-12.6" fill="black"/></g><g id="expression-old-a5bd89fe"><path fill-rule="evenodd" clip-rule="evenodd" d="M140 212.6c-6.4 0-13.5-2.3-18.4-4.2l-1.2-.5a33 33 0 0 1-11.6-6.8 13 13 0 0 1-2.7-3.4q-.5-1.2-.1-2.3l3.3-.4 1.3-.2 4 .3 3.6.5q4.5.7 9 1l6.6-.2c6-.3 12.2-.8 16.8 3.4a5 5 0 0 1 1.7 3.9q-.1 2.6-1.9 4.8c-2.4 3-6.2 4.1-10.4 4.1m35-53.6a15 15 0 0 1-13.8 6.6 82 82 0 0 1-38.2-12.2 11 11 0 0 1-4.9-7.8l-.5-5.4-3.1 4.5-1 1.4-2.6 4a175 175 0 0 0-8.9 15.7 91 91 0 0 0-4.7 12.5 47 47 0 0 1-9.6 19.6q-1.4 1.1-3 1t-2.3-1.5c-6-12.3 2-27 8.6-37.2l.7-1c6-9.3 16-21.5 27.4-23.2l1.3 2 1.8-1.2c3.1-2 7.2-2 10.8-.3l3.6 1.6a100 100 0 0 0 23.4 7.8l-.3-1.5a87 87 0 0 0-2.8-9.3c-3-7.7-7.5-14.9-12-21.7l-.6-.8-2-3c-3.6-5.1-7.5-10.6-7.8-16.1 4.7.3 8.6 3.2 12 5.7q7.1 5.3 13.1 11.7c7.7 8.4 14.6 19 17.7 30.1 1.7 6.3 1 13.1-2.3 18M51.6 96v-.2c0-6.4 3.7-21 13-21 5.7 0 9.1 10 9.7 20.2v.4c.3 6.4-1.4 20.2-9.8 20.2S51.7 102.4 51.6 96m135.2-2v-.2c0-6.4-3.8-21-13-21-5.5 0-9 9.5-9.7 19.4v.8c-.4 6.1 1.2 20.6 9.8 20.6 8.4 0 12.8-13.1 12.9-19.6M82.5 52.8l-3.6.5a168 168 0 0 0-30.2 7.5 437 437 0 0 0-25 9.5q-4.9 2.1-9.8 3.8a94 94 0 0 1 34.7-27q11-5.5 22.8-9l4.3-1.3c6.4-1.9 13.4-3.6 19.3.2a10 10 0 0 1 4.4 6.2 9 9 0 0 1-1.8 7.3q-2.2 2.8-5.2 3.4a10 10 0 0 1-6.5-1.2h-3.4m96 1.2a52 52 0 0 0-18.7-.5c-3 .5-6 1-9.2.4q-2.4-.5-4.1-2.6a11 11 0 0 1-2.4-5.2q-.4-2.7.6-5 1.3-2.4 3.9-4.3c5-3.8 13.7-3 19.6-2.1q9 1 16.9 5.4t13 11.4c3 4 4.3 8.5 5.8 13.2-6.7-5.6-17-8.9-25.5-10.7" fill="black"/></g><clipPath id="clip-a5bd89fe"><rect width="704" height="704" rx="0" ry="0"/></clipPath></defs><g clip-path="url(#clip-a5bd89fe)"><path fill-rule="evenodd" clip-rule="evenodd" d="M705.3 1074a2351 2351 0 0 1-15.6-101c-1-7.7-2.5-16.4 2.7-22 7.3-8 14-14.8 14.8-26.2.8-10.7-2.8-22.4-5-32.8a809 809 0 0 0-17.3-64.7q-10-32.5-21.3-64.6c-6.9-20-13.5-40.3-22.5-59.5-17-36.5-46-63.5-81.6-81.6-9-4.5-27-20.5-36.3-24-8.5-3.4-8.5 6.3-16.9 2.6-6.7-2.9-13-6.7-16.7-13.2-4-7-14.3-16.9-15.9-25-3.3-17.4.3-32.2-12-45.3a90 90 0 0 0-41.1-23.8c-33.7-9.3-78.5-2.8-98.8 28.5-9.7 14.9-13 33-26.2 45.1-11.4 10.7-8.8 18-23.6 23.4-.9.3-23.6-4.5-24.4-4.2-16.2-3.5-31.7 6.2-46.5 11.8a325 325 0 0 0-63 32.3 399 399 0 0 0-102.3 98.5 483 483 0 0 0-76.4 161c-1.7 6.4-3.5 13-1.5 19.4a25 25 0 0 0 9.8 12.4c6 4.3 18 7 17.7 15.7-.1 6.6-2.4 13.5-3.5 20q-1.9 11.6-3.4 23.2a1232 1232 0 0 0-10.3 106.6 920 920 0 0 0-.5 106q.2 3.5 2 6.2c-1 .4-1.2 2.4.1 2.7l2.7.5a12 12 0 0 0 7 2.4l5.5.2c19.3 4 38.6 7.9 58.1 10.8q35.7 5.2 71.5 8.7c49.2 4.8 98 3.2 147.1.6a1877 1877 0 0 1 147.4-2c49.2 1.4 98.4 3.5 147.6 4.4q82.5 1.6 164.8-5c7.5-.5 12.2-6.5 10.7-14-8.9-44.7-19-89.1-27-134" fill="#ae5d29"/><path fill-rule="evenodd" clip-rule="evenodd" d="m201 597.5 1.2-.4c14.5-5.7 29.6-14.8 45.4-11.4.5-.2 10.8 1.9 17.9 3.2l-6.7 7L247 598q61 100.7 144.3 100.7T517.7 598l4-1q.7 0 1.5.4c9.3 3.6 27.4 19.6 36.3 24.1 35.6 18 64.5 45 81.6 81.6 8.7 18.6 15.2 38 21.8 57.5l.7 2q11.3 32.1 21.3 64.6 9.6 30.6 16.6 61.8l.7 2.9c2.2 10.4 5.8 22 5 32.8a29 29 0 0 1-3 10.7l-80.4 29 38.4 261.3q-52.7 2.3-105.5 1.3c-49.2-.9-98.4-3-147.6-4.3q-71.5-1.9-143 1.7l-12 .6a946 946 0 0 1-139.5-1l-3.1-.3v-38.3l16.3-212.9-83-15.6-81.3-39.5a22 22 0 0 1-5.6-8.8c-1.9-6-.5-12 1-18l.5-1.3a493 493 0 0 1 76.4-161A399 399 0 0 1 138 629.7q29.8-19.6 63-32.3" fill="#78e185"/><path fill-rule="evenodd" clip-rule="evenodd" d="M232.2 584.6c5.1-.3 10.3.6 15.4 1 .4.1.6.8 0 .9q-13.5 3-26.9 7.1l-3.8 1.2c-10 3-19.8 6-29.6 10a264 264 0 0 0-54.8 30.8C67.2 682.8 20 754.3-9.9 828.3a526 526 0 0 0-24.3 77c-.4 1.6-2 5.4-1 7 .7 1.3 3.6 2.1 5 2.9l4.5 2.3 25.2 12.9 2.3 1.1c38 18.6 78.4 34.4 121 35.5l.4-3.7a342 342 0 0 1 9.9-60c.3-1 1.6-.6 1.7.3 3 23.1 2 46.4 1 69.7-1.8 41-4.3 82.2-6.5 123.3l-3.9 61.7c-1.3 20.5-1.7 41.6-4.7 62-.6 4.6-6 7-10 6.6a9 9 0 0 1-8-9c0-11.9 1.5-24 2.4-35.8l2.5-33.8c3.1-41.1 6.8-82.2 10.2-123.3l3.8-43.7C76.4 979.8 34.2 963-6.1 943.5c-.6 13.2-2 26.5-3.4 39.6q-5.8 55.2-9.6 110.5a2254 2254 0 0 0-4.2 92.7l-.2 7c0 4.4-.5 8.5-4.3 11.7a9 9 0 0 1-12.6 0c-5-4.6-4.2-10.9-4-17.1a1676 1676 0 0 1 1.8-47.2 1321 1321 0 0 1 10.5-109.5l2-14a461 461 0 0 1 15.5-77.9q-4.6-2.2-9.3-4.7-8.4-4-16.6-8.4c-4.2-2.5-7.9-5.8-9-10.8-1.4-5.5.6-11.5 2-16.9v-.4a502 502 0 0 1 26.6-80 523 523 0 0 1 67.8-117 354 354 0 0 1 88.7-83.3 239 239 0 0 1 53.8-25.7 143 143 0 0 1 42.8-7.5m90.1-66c6-6.5 18.1.2 15.2 8.8a108 108 0 0 1-34.7 52A79 79 0 0 1 247 598l1.7 2.4a321 321 0 0 0 46.1 52.6c36 31.2 84.8 48 132 36 37.1-9.4 69.8-38.8 79.4-76.2q-2 1-4.8.5c-7.7-1.7-15.3-9.8-20.3-15.6q-8-9.3-12.6-20.7c-5.6-14-7.4-32.1.3-45.7 1-1.7 3-.7 3.3 1l.3 2.5c1.5 12.7 3.3 25 9.3 36.6a76 76 0 0 0 18.2 23.1c2.6 2 5.8 3.6 8.1 6l.5.4c.6-5 4.1-7.3 7.6-7.2a29 29 0 0 1 8.8 2.3l.1.1a341 341 0 0 1 65.1 42 259 259 0 0 1 88.4 129c7.5 25.3 11.8 51.4 16.3 77.4l2.8 16c4.2 23.9 8.9 48.4 18.4 70.7 2.5 5.7.6 11.1-5.5 13.4L688 953c3.7 16 6 32.5 8.7 48.5 6 34.1 13.2 68 19.4 102l9.3 52.3 4.7 25.2 2.4 13.6.1.7c.5 2.4 1 4.9.4 7.3-.8 2.7-2.9 4.6-4.8 6.6-1.6 1.6-3.8 1.6-5.7.7l-.7-.3c-3.4-1.6-6-3.2-7.3-7q-.9-3.8-1.5-7.7l-2.8-14.5-5-29.1-1.6-9.1a1165 1165 0 0 1-12.8-94.5q-1.6-21-3.5-42.2l-.9-10.5c-1.1-13.3-2.5-27-2.7-40.5l-4.5 1.6L657 964c-5.5 2-12.5 6-18.4 5.2q-4.2-.4-6.8-2.9 3 43.1 8.5 86a1966 1966 0 0 0 22 135l1.9 9.6c.5 3.7-.5 5.9-2.5 9-1.7 2.4-5 3.7-7.8 2-3.6-2.3-5.5-4.3-6.5-8.4q-1.4-5.6-2.3-11.4a1654 1654 0 0 1-11.4-65.2Q622 1044.7 618.5 966a1388 1388 0 0 1-1.4-77.8q0-20 1.4-39.9c1-13.4 3-26.5 4.8-39.8 0-.5.7-.5.7 0 .8 14.9 2.1 29.8 2.8 44.7l1.4 42.8q.9 28.1 2.7 56.2a10 10 0 0 1 8.5-3.1c4.7-1 9.7-3.4 14.1-5l16.8-5.5 26.4-8.7a679 679 0 0 1-18-80.8l-2-12.3c-4-24.2-8.5-48.5-15.8-72a230 230 0 0 0-34.8-68.2 370 370 0 0 0-52.7-55.3C557 627 539.7 614 523 600q.2 1.4 0 3a117 117 0 0 1-35.8 67.9c-37.7 36-93.6 43.4-142 26.5-46.7-16.3-88-55-102.6-102.8-.3-.8.8-1 1.3-.5l2.4 3.3q0-.7.7-1a129 129 0 0 0 46.6-29.2 100 100 0 0 0 21.3-33.3l.4-1c1.7-5 3.2-10.2 7-14.2" fill="black"/><use transform="matrix(.99789 0 0 1 6.3 -58)" href="#head-mohawk-a5bd89fe"/><use transform="translate(351 275)" href="#expression-old-a5bd89fe"/></g></svg>