<svg width="625" height="627" viewBox="0 0 625 627" fill="none" xmlns="http://www.w3.org/2000/svg">
<g filter="url(#filter0_d_1732_164)">
<path d="M14.938 274.062C-4.51847 277.274 -5.16352 307.738 14.1476 311.732C178.248 345.673 249.631 393.009 289.187 566.582C293.663 586.223 328.847 585.919 332.48 566.105C364.069 393.862 415.654 342.235 587.877 310.674C607.691 307.043 607.695 273.893 587.881 270.259C415.638 238.67 364.01 187.086 332.449 14.863C328.818 -4.95126 295.668 -4.9553 292.035 14.8584C259.156 194.133 204.617 242.743 14.938 274.062Z" fill="#8D83FF"/>
<path d="M312.242 7.00049C319.368 7.00132 324.567 10.6809 325.564 16.1245C341.4 102.538 362.501 160.299 402.46 200.249C442.419 240.197 500.196 261.294 586.618 277.144C592.061 278.142 595.74 283.34 595.739 290.466C595.738 297.592 592.059 302.791 586.615 303.789C500.202 319.624 442.44 340.725 402.49 380.684C362.542 420.643 341.445 478.42 325.596 564.842C324.637 570.072 319.171 574.059 311.08 574.139C302.996 574.219 297.22 570.323 296.013 565.027C276.078 477.556 247.862 420.677 202.973 381.52C158.237 342.497 97.8413 321.895 15.5654 304.877C10.0882 303.745 6.87412 298.872 7.00293 292.751C7.1319 286.63 10.5519 281.881 16.0781 280.968C111.067 265.284 173.962 245.066 217.049 205.075C260.243 164.983 282.423 106.074 298.92 16.1216C299.918 10.6785 305.116 6.99969 312.242 7.00049Z" stroke="#19154A" stroke-width="14"/>
</g>
<defs>
<filter id="filter0_d_1732_164" x="0" y="0" width="624.74" height="626.141" filterUnits="userSpaceOnUse" color-interpolation-filters="sRGB">
<feFlood flood-opacity="0" result="BackgroundImageFix"/>
<feColorMatrix in="SourceAlpha" type="matrix" values="0 0 0 0 0 0 0 0 0 0 0 0 0 0 0 0 0 0 127 0" result="hardAlpha"/>
<feOffset dx="22" dy="45"/>
<feComposite in2="hardAlpha" operator="out"/>
<feColorMatrix type="matrix" values="0 0 0 0 0.0980392 0 0 0 0 0.0823529 0 0 0 0 0.290196 0 0 0 1 0"/>
<feBlend mode="normal" in2="BackgroundImageFix" result="effect1_dropShadow_1732_164"/>
<feBlend mode="normal" in="SourceGraphic" in2="effect1_dropShadow_1732_164" result="shape"/>
</filter>
</defs>
</svg>
